# xmcd
#
# Track frame offsets:
#	150
#	29720
#	45945
#	57963
#	72625
#	82935
#	94650
#	106650
#	121825
#	132753
#	151700
#	168360
#	197763
#	215480
#	228780
#	240083
#	252563
#	264363
#
# Disc length: 3689 seconds
#
# Revision: 0
# Processed by: cddbd v1.5.2PL0 Copyright (c) Steve Scherf et al.
# Submitted via: EasyCDDAExtractor 15.2.5.1
#
DISCID=e10e6712
DTITLE=Arthur Fiedler - Pops Roundup
DYEAR=1900
DGENRE=
TTITLE0=Pops Roundup
TTITLE1=O Bury Me Not On The Lone Pairie
TTITLE2=Red River Valley
TTITLE3=Home On The Range
TTITLE4=Whoopie-Ti-Yi-Yo
TTITLE5=Tumbling Tumbleweeds
TTITLE6=The Yellow Rose Of Texas
TTITLE7=Wagon Wheels
TTITLE8=Riders In The Sky
TTITLE9=Cool Water
TTITLE10=The Last Roundup
TTITLE11=Pops Hoe-Down
TTITLE12=Shenandoah
TTITLE13=High Noon
TTITLE14=Mexicali Rose
TTITLE15=The Streets Of Laredo
TTITLE16=Don't Fence Me In
TTITLE17=Deep In The Heart Of Texas
EXTD=
EXTT0=
EXTT1=
EXTT2=
EXTT3=
EXTT4=
EXTT5=
EXTT6=
EXTT7=
EXTT8=
EXTT9=
EXTT10=
EXTT11=
EXTT12=
EXTT13=
EXTT14=
EXTT15=
EXTT16=
EXTT17=
PLAYORDER=
